<?xml version="1.0" standalone="no"?><!DOCTYPE svg PUBLIC "-//W3C//DTD SVG 1.1//EN" "http://www.w3.org/Graphics/SVG/1.1/DTD/svg11.dtd"><svg t="1674617820018" class="icon" viewBox="0 0 1024 1024" version="1.1" xmlns="http://www.w3.org/2000/svg" p-id="1106" width="24" height="24" xmlns:xlink="http://www.w3.org/1999/xlink"><path d="M130.048 980.992c-12.8 0-25.088-5.12-33.792-13.824-19.456-18.944-19.968-49.664-1.024-69.12l65.024-67.072-94.72-75.264c-10.24-8.192-16.896-19.968-17.92-32.768s2.048-25.6 10.24-35.84c9.216-11.776 23.552-18.432 38.4-18.432 10.752 0 22.016 3.584 30.208 10.752l102.4 81.408 76.288-78.848 1.024-1.024 12.288-11.776-9.728-14.336c-56.32-81.92-77.312-181.248-59.392-279.04 32.768-178.176 187.904-307.712 368.64-307.712 22.528 0 45.568 2.048 68.096 6.144 203.264 37.376 338.432 233.472 301.056 436.736-32.768 178.176-187.904 307.712-368.64 307.712-22.528 0-45.568-2.048-68.096-6.144-54.784-10.24-104.96-31.232-150.016-63.488l-14.336-10.24-81.408 83.968L389.12 889.856c20.992 16.896 24.576 47.616 7.68 68.608-9.216 11.776-23.552 18.432-38.4 18.432-10.752 0-22.016-3.584-30.208-10.752l-92.16-73.216-71.68 73.728c-8.192 9.216-20.992 14.336-34.304 14.336z m487.936-820.224c-135.68 0-252.416 97.28-276.992 230.912-13.824 73.728 2.56 148.992 45.056 210.944 43.008 61.952 107.008 103.424 180.736 117.248 16.896 3.072 33.792 4.608 51.2 4.608 135.68 0 252.416-97.28 276.992-230.912 13.824-73.728-2.56-148.48-45.056-210.944-43.008-61.952-107.008-103.424-180.736-117.248-16.896-3.072-34.304-4.608-51.2-4.608z" p-id="1107" fill="#d4237a"></path></svg>